<svg xml:space="preserve" viewBox="0 0 100 100" y="0px" x="0px" xmlns:xlink="http://www.w3.org/1999/xlink" xmlns="http://www.w3.org/2000/svg" id="圖層_1" version="1.1" preserveAspectRatio="xMidYMid" width="200" height="200" style="margin-top:0px;margin-right:0px;margin-bottom:0px;margin-left:0px;display:block;shape-rendering:auto;background-position-x:0%;background-position-y:0%;background-size:auto;background-origin:padding-box;background-clip:border-box;background:scroll rgb(210, 211, 212) none  repeat;width:200px;height:200px;;animation:none"><g class="ldl-scale" style="transform-origin:50px 50px;transform:matrix(0.8, 0, 0, 0.8, 0, 0);;animation:none"><g class="ldl-ani"><g class="ldl-layer"><g class="ldl-ani" style="transform:matrix(1, 0, 0, 1, 0, 0);transform-box:view-box;animation-duration:1s;animation-timing-function:linear;animation-delay:-0.666667s;animation-iteration-count:infinite;animation-direction:normal;animation-fill-mode:forwards;animation-play-state:paused;animation-name:animate;animation-timeline:auto;animation-range-start:normal;animation-range-end:normal;transform-origin:50px 50px;;animation:none"><path d="M49,10c-19.3,0.5-34.5,16.9-34.5,36.2l0,41.9c0,1.1,1.3,1.6,2.1,0.8l5.1-5.4c0.9-1,2.5-1,3.5,0l5.4,5.8
	c0.9,1,2.5,1,3.5,0l5.4-5.8c0.9-1,2.5-1,3.5,0l5.4,5.8c0.9,1,2.5,1,3.5,0l5.4-5.8c0.9-1,2.5-1,3.5,0l5.4,5.8c0.9,1,2.5,1,3.5,0
	l5.4-5.8c0.9-1,2.5-1,3.5,0l5.1,5.4c0.7,0.8,2.1,0.3,2.1-0.8V45.5C85.5,25.6,69,9.5,49,10z" fill="#A0C8D7" style="stroke-width:1px;fill:rgb(233, 233, 233);;animation:none"></path></g></g>


<g class="ldl-layer"><g class="ldl-ani"><g><g class="ldl-layer"><g class="ldl-ani" style="transform:matrix(1, 0, 0, 1, 0, 0);transform-box:view-box;animation-duration:1s;animation-timing-function:linear;animation-delay:-0.833333s;animation-iteration-count:infinite;animation-direction:normal;animation-fill-mode:forwards;animation-play-state:paused;animation-name:animate;animation-timeline:auto;animation-range-start:normal;animation-range-end:normal;transform-origin:50px 50px;;animation:none"><ellipse ry="11.9" rx="7.7" cy="48.1" cx="64.1" fill="#FFFFFF" style="stroke-width:1px;fill:rgb(172, 189, 195);;animation:none"></ellipse></g></g>

	
<g class="ldl-layer"><g class="ldl-ani" style="transform:matrix(1, 0, 0, 1, 0, 0);transform-box:view-box;animation-duration:1s;animation-timing-function:linear;animation-delay:-1s;animation-iteration-count:infinite;animation-direction:normal;animation-fill-mode:forwards;animation-play-state:paused;animation-name:animate;animation-timeline:auto;animation-range-start:normal;animation-range-end:normal;transform-origin:50px 50px;;animation:none"><ellipse ry="11.9" rx="7.7" cy="48.1" cx="35.9" fill="#FFFFFF" style="stroke-width:1px;fill:rgb(172, 189, 195);;animation:none"></ellipse></g></g></g></g></g></g></g>
<STYLE type="text/css">@keyframes animate { 0.00% {animation-timing-function: cubic-bezier(0.33,0.00,0.67,0.00);transform: translate(0.00px,0.00px) rotate(0.00deg) scale(1.00, 1.00) skew(0deg, 0.00deg) ;opacity: 1.00;}50.00% {animation-timing-function: cubic-bezier(0.33,0.00,0.67,0.00);transform: translate(0.00px,0.00px) rotate(0.00deg) ;}100.00% {animation-timing-function: cubic-bezier(0.33,0.00,0.67,0.00);transform: translate(0.00px,0.00px) rotate(0.00deg) ;} }</STYLE><!-- [ldio] generated by https://loading.io --></svg>